<svg width="512" height="512" viewBox="0 0 512 512" fill="none" xmlns="http://www.w3.org/2000/svg">
    <defs>
        <linearGradient id="mythicGradient" x1="256" y1="0" x2="256" y2="512" gradientUnits="userSpaceOnUse">
            <stop offset="0.2" stop-color="#FFD700" /> <stop offset="0.6" stop-color="#FF6B00" /> <stop offset="1.0" stop-color="#D32F2F" /> </linearGradient>
        
        <linearGradient id="riftGradient" x1="256" y1="300" x2="256" y2="512" gradientUnits="userSpaceOnUse">
             <stop offset="0" stop-color="#FF6B00" />
             <stop offset="1" stop-color="#8E24AA" /> </linearGradient>
    </defs>

    <path d="M180 80 C 180 60, 332 60, 332 80 L 332 350 L 180 350 Z" fill="url(#mythicGradient)" />
    
    <ellipse cx="256" cy="215" rx="50" ry="70" fill="#FFFFFF" fill-opacity="0.2"/>

    <path d="M140 450 C 140 450, 120 250, 200 100" stroke="url(#mythicGradient)" stroke-width="12" stroke-linecap="round" opacity="0.6"/>
    <path d="M372 450 C 372 450, 392 250, 312 100" stroke="url(#mythicGradient)" stroke-width="12" stroke-linecap="round" opacity="0.6"/>

    <path fill-rule="evenodd" clip-rule="evenodd" d="M50 420 C 100 380, 200 360, 256 360 C 312 360, 412 380, 462 420 L 500 512 L 12 512 L 50 420 Z" fill="url(#riftGradient)"/>
    
    <path d="M160 360 L 200 340 L 256 370 L 312 340 L 352 360" stroke="#FFD700" stroke-width="8" stroke-linecap="round" stroke-linejoin="round"/>
</svg>