<svg xmlns="http://www.w3.org/2000/svg" viewBox="0 0 1024 1024" width="1024" height="1024">
  <defs>
    <linearGradient id="aFill" x1="512" y1="220" x2="512" y2="900" gradientUnits="userSpaceOnUse">
      <stop offset="0%" stop-color="#7DFFE8"/>
      <stop offset="35%" stop-color="#00E5CC"/>
      <stop offset="100%" stop-color="#00A896"/>
    </linearGradient>
    <radialGradient id="plateGrad" cx="50%" cy="42%" r="58%">
      <stop offset="0%" stop-color="#152238"/>
      <stop offset="100%" stop-color="#0B101C"/>
    </radialGradient>
  </defs>
  <!-- Inner disc (full-bleed icons use a smaller centered mark; this mirrors that pattern) -->
  <circle cx="512" cy="512" r="300" fill="url(#plateGrad)" stroke="#00E5CC" stroke-width="4" stroke-opacity="0.28"/>
  <g transform="translate(512,512) scale(0.42) translate(-512,-570)">
    <g fill="none" stroke-linecap="round" stroke-linejoin="round">
      <path d="M 268 372 Q 512 258 756 372" stroke="#00E5CC" stroke-width="12" opacity="0.28"/>
      <g opacity="0.14" stroke="#00E5CC" stroke-width="6">
        <rect x="168" y="556" width="76" height="288" rx="16" ry="16" transform="rotate(-10 206 700)"/>
        <rect x="198" y="544" width="76" height="300" rx="16" ry="16" transform="rotate(-5 236 694)"/>
        <g transform="translate(1024,0) scale(-1,1)">
          <rect x="168" y="556" width="76" height="288" rx="16" ry="16" transform="rotate(-10 206 700)"/>
          <rect x="198" y="544" width="76" height="300" rx="16" ry="16" transform="rotate(-5 236 694)"/>
        </g>
      </g>
    </g>
    <path fill="url(#aFill)" fill-rule="evenodd"
          d="M 208 892 L 352 892 L 442 618 L 442 418 Q 512 312 582 418 L 582 618 L 672 892 L 816 892
             L 636 328 Q 512 248 388 328 Z
             M 512 398 L 442 618 L 582 618 Z"/>
  </g>
</svg>
